<?xml version="1.0" encoding="utf-8"?>
<!-- Generator: Adobe Illustrator 25.0.1, SVG Export Plug-In . SVG Version: 6.00 Build 0)  -->
<svg version="1.1" id="Layer_1" xmlns="http://www.w3.org/2000/svg" xmlns:xlink="http://www.w3.org/1999/xlink" x="0px" y="0px"
	 viewBox="0 0 400 400" enable-background="new 0 0 400 400" xml:space="preserve">
<g>
	<path fill="#FFFFFF" d="M132.4-0.5v152.2h0.5c0-1.6,2.1-4.1,6.2-7.4c1-3.4,2.9-5.1,5.9-5.1h0.4c3.3,0,5.2,1.9,5.9,5.6
		c-1,3.2-2.7,4.8-5.3,4.8h-1.5c-1.1,0-2.4-0.6-3.8-1.8c-4.8,4.8-7.1,9.9-7.1,15.1v0.8c1.8,1.8,2.7,3.2,2.7,4.4v1.3
		c0,1.9-1.3,3.3-3.8,4.3v3.5c8.8,0,20.4,4.6,34.8,13.8c11.1,10,18.8,20.1,23.1,30.3c5.4,14.9,8.1,27.1,8.1,36.7
		c-0.2,1.9-0.4,3.9-0.4,6.1c0,0.7,0.1,1.3,0.4,1.8c0,10.3-3.8,22.5-11.5,36.7c-13.7,19.3-33.9,28.9-60.6,28.9
		c-11,0-22.8-3.5-35.5-10.4c-0.6-0.3-1.4-0.5-2.4-0.5c-1.6,1.6-2.4,2.7-2.4,3.1c0,0.2,0.1,0.3,0.4,0.3l-0.4,3.1v0.3l12.1,62.6
		c0,5.4-6.5,8.1-19.6,8.1c-7.3,1.2-12.8,1.8-16.5,1.8h-0.4c-4.8,0-7.5-3-8.2-9l-31.5-193c0-4.6,5.3-7.2,15.9-7.7
		c1.5,0,7.9-0.7,19.2-2.1c3.7,0,6.7,3.3,9.2,9.9l2.4,0.5c2,0,5.3-2.5,10.1-7.4c11.5-8.3,21.7-12.5,30.8-12.5c0-0.9,4.6-1.5,13.9-1.8
		h4v-3.5c-1.7-1.4-2.6-2.7-2.6-3.8v-1c0-1.2,0.9-2.6,2.6-4.3V-0.5C127.9-0.5,130.8-0.5,132.4-0.5z M73.8,251c0,19,6.2,34,18.7,45.1
		c8.1,4.6,14.5,6.9,19.2,6.9c18.8,0,31.2-6.4,37.2-19.1c2.8-5,4.2-12.1,4.2-21.2c-0.6-25.9-9.2-42.9-25.8-51c-5-2-10.2-3-15.6-3
		c-19,0-31.1,8.5-36.1,25.5C74.4,238.5,73.8,244.1,73.8,251z M121.9,192.3c0,4.2,2.9,6.6,8.6,7.4c4.8-1,7.1-3.6,7.1-7.9
		c-1.2-3.9-3-5.9-5.3-5.9v2.1c0,0.4-0.6,1-1.8,1.6h-1.5c-0.5,0-1.1-0.5-1.8-1.6v-2.1h-0.5C123.5,187.5,121.9,189.6,121.9,192.3z"/>
	<path fill="#FFFFFF" d="M288.9-0.5v128.2c1.3,1.2,2,2.3,2,3.3v1.3c0,1-0.5,2-1.5,3v0.5c13.7,2.9,20.5,6.3,20.5,10.4v0.5
		c0,1-4.6,13.6-13.9,37.8c-3.8,9.5-5.7,15.8-5.7,18.9v0.3c0.6,1.4,1.8,2.1,3.7,2.1c11.1-2.8,19.7-4.3,25.8-4.3h3.7
		c8.4,0,18.6,2.7,30.4,8.1c13.1,7.3,22.3,18.4,27.7,33.2c1.6,5.5,2.7,11.3,3.3,17.6c0,22.9-8.1,44.7-24.4,65.4
		c-16.1,16.6-32.8,24.8-50,24.8c-20.6,0-38.7-7-54.2-21c-4.8-6.6-8.1-10.1-9.9-10.5c-1.1,0-3.6,2.5-7.5,7.6l-2.4,0.5h-1.8
		c-21.1-5-31.7-8.8-31.7-11.3l-0.5-2.1c0-1.8,21.7-60.4,65-175.9c2.2-4.2,4.7-6.2,7.5-6.2c0.9,0.3,2.4,0.5,4.6,0.5
		c0.5-3.1,1.6-4.6,3.3-4.6c0-5.8-2.5-11.2-7.5-16.1c-1.2,1.2-2.4,1.8-3.7,1.8h-1.5c-2.3,0-4-1.5-5.1-4.6c0.6-3.7,2.5-5.6,5.7-5.6
		h0.4c2.7,0,4.9,2,6.6,5.9c2.7,1.6,4.6,3.9,5.7,6.7h0.4v-116C284.7-0.5,286.5-0.5,288.9-0.5z M261.8,278.8v4.3
		c0,15.1,6.4,25.5,19.2,31.1c0,1.1,5.4,2.2,16.3,3.3c13.4,0,25.6-9.1,36.6-27.3c3.4-7.3,5.9-16.3,7.3-26.8v-0.5
		c0-11.5-4.2-21.2-12.6-28.9c-6.5-3.7-12.5-6-18.1-6.7h-5.1c-16.1,0-29.4,11.2-39.7,33.7C263.1,269.2,261.8,275.2,261.8,278.8z
		 M278.7,154.5c0,4.1,2.8,6.5,8.4,7.2c4.6-0.9,7-3.4,7-7.6c-1.1-3.9-2.8-5.9-5.1-5.9v2.1c0,0.4-0.6,1-1.8,1.6h-1.3
		c-0.5,0-1.2-0.5-2-1.6v-2.1h-0.4C280.3,149.9,278.7,152,278.7,154.5z"/>
</g>
</svg>
