<?xml version="1.0" encoding="utf-8"?>
<!-- Generator: Adobe Illustrator 25.0.1, SVG Export Plug-In . SVG Version: 6.00 Build 0)  -->
<svg version="1.1" id="Layer_1" xmlns="http://www.w3.org/2000/svg" xmlns:xlink="http://www.w3.org/1999/xlink" x="0px" y="0px"
	 viewBox="0 0 400 400" enable-background="new 0 0 400 400" xml:space="preserve">
<g>
	<path fill="#0F1624" d="M143-0.5v139.9h0.5c0-1.5,1.8-3.8,5.3-6.8c0.8-3.1,2.5-4.7,5-4.7h0.3c2.8,0,4.5,1.7,5,5.1
		c-0.8,2.9-2.3,4.4-4.5,4.4h-1.2c-0.9,0-2-0.6-3.3-1.7c-4,4.4-6.1,9.1-6.1,13.9v0.8c1.6,1.6,2.3,3,2.3,4.1v1.2c0,1.7-1.1,3-3.3,3.9
		v3.2c7.5,0,17.3,4.2,29.6,12.7c9.4,9.2,16,18.4,19.6,27.8c4.6,13.7,6.9,24.9,6.9,33.7c-0.2,1.7-0.3,3.6-0.3,5.6
		c0,0.6,0.1,1.2,0.3,1.7c0,9.5-3.3,20.7-9.8,33.7c-11.6,17.7-28.8,26.6-51.5,26.6c-9.3,0-19.4-3.2-30.2-9.5c-0.5-0.3-1.2-0.5-2-0.5
		c-1.4,1.5-2,2.5-2,2.9c0,0.2,0.1,0.3,0.3,0.3l-0.3,2.9v0.3l10.3,57.6c0,4.9-5.6,7.4-16.7,7.4c-6.2,1.1-10.9,1.7-14,1.7h-0.3
		c-4,0-6.4-2.8-7-8.3L48.9,181.9c0-4.2,4.5-6.6,13.5-7.1c1.2,0,6.7-0.7,16.4-2c3.1,0,5.7,3,7.8,9.1l2,0.5c1.7,0,4.5-2.3,8.6-6.8
		c9.8-7.7,18.5-11.5,26.2-11.5c0-0.8,3.9-1.4,11.8-1.7h3.4v-3.2c-1.5-1.3-2.2-2.5-2.2-3.5v-0.9c0-1.1,0.7-2.4,2.2-3.9V-0.5
		C139.2-0.5,141.6-0.5,143-0.5z M93.1,230.7c0,17.4,5.3,31.2,15.9,41.4c6.9,4.2,12.3,6.3,16.4,6.3c16,0,26.5-5.8,31.6-17.5
		c2.4-4.6,3.6-11.1,3.6-19.5c-0.5-23.8-7.8-39.4-22-46.8c-4.3-1.8-8.7-2.7-13.2-2.7c-16.2,0-26.4,7.8-30.7,23.4
		C93.7,219.2,93.1,224.3,93.1,230.7z M134.1,176.7c0,3.8,2.4,6.1,7.3,6.8c4-0.9,6.1-3.3,6.1-7.3c-1-3.6-2.5-5.4-4.5-5.4v2
		c0,0.4-0.5,0.9-1.6,1.5h-1.2c-0.4,0-0.9-0.5-1.6-1.5v-2h-0.5C135.4,172.3,134.1,174.2,134.1,176.7z"/>
	<path fill="#0F1624" d="M276.1-0.5v117.8c1.1,1.1,1.7,2.1,1.7,3v1.2c0,0.9-0.4,1.8-1.2,2.7v0.5c11.6,2.6,17.4,5.8,17.4,9.5v0.5
		c0,0.9-3.9,12.5-11.8,34.8c-3.2,8.8-4.8,14.6-4.8,17.4v0.3c0.5,1.3,1.6,2,3.1,2c9.4-2.6,16.8-3.9,22-3.9h3.1
		c7.2,0,15.8,2.5,25.9,7.4c11.1,6.8,18.9,16.9,23.5,30.5c1.3,5,2.3,10.4,2.8,16.2c0,21.1-6.9,41.1-20.7,60.2
		c-13.7,15.2-27.9,22.8-42.5,22.8c-17.5,0-32.9-6.4-46.1-19.3c-4-6-6.9-9.3-8.4-9.7c-0.9,0-3.1,2.3-6.4,7l-2,0.5H230
		c-18-4.6-26.9-8.1-26.9-10.4l-0.5-2c0-1.6,18.4-55.5,55.3-161.7c1.9-3.8,4-5.7,6.4-5.7c0.7,0.3,2,0.5,3.9,0.5
		c0.4-2.8,1.3-4.2,2.8-4.2c0-5.3-2.1-10.3-6.4-14.8c-1,1.1-2.1,1.7-3.1,1.7h-1.2c-2,0-3.4-1.4-4.4-4.2c0.5-3.4,2.1-5.1,4.8-5.1h0.3
		c2.3,0,4.2,1.8,5.6,5.4c2.3,1.5,3.9,3.6,4.8,6.2h0.3V-0.5C272.5-0.5,274.1-0.5,276.1-0.5z M253.1,256.2v3.9
		c0,13.9,5.4,23.4,16.4,28.6c0,1,4.6,2,13.9,3c11.4,0,21.8-8.4,31.1-25.1c2.9-6.7,5-15,6.2-24.6v-0.5c0-10.6-3.6-19.4-10.7-26.6
		c-5.5-3.4-10.6-5.5-15.4-6.2h-4.4c-13.7,0-25,10.3-33.8,31C254.2,247.4,253.1,252.9,253.1,256.2z M267.4,142c0,3.7,2.4,5.9,7.2,6.6
		c3.9-0.8,5.9-3.1,5.9-7c-0.9-3.6-2.4-5.4-4.4-5.4v2c0,0.4-0.5,0.9-1.6,1.5h-1.1c-0.4,0-1-0.5-1.7-1.5v-2h-0.3
		C268.8,137.8,267.4,139.7,267.4,142z"/>
</g>
</svg>
